PathFileType	3	(X/Y/Z)	D:\Jess\Healthy\Labelled\HA23\20251031\SRRun01.trc
DataRate	CameraRate	NumFrames	NumMarkers	Units	OrigDataRate	OrigDataStartFrame	OrigNumFrames
250.0	250.0	4	37	mm	250.0	35000	2501
Frame#	Time	C7			T10			CLAV			LSHO			RSHO			LASIS			RASIS			LPSIS			RPSIS			LILCR			RILCR			LGTR			LTHI			LLTHI			LLEP			LMEP			LPSH			LLSH			LDSH			LLMAL			LMMAL			LTOE			L5TH			LHEE			RGTR			RTHI			RLTHI			RLEP			RMEP			RPSH			RLSH			RDSH			RLMAL			RMMAL			RTOE			R5TH			RHEE			
		X1	Y1	Z1	X2	Y2	Z2	X3	Y3	Z3	X4	Y4	Z4	X5	Y5	Z5	X6	Y6	Z6	X7	Y7	Z7	X8	Y8	Z8	X9	Y9	Z9	X10	Y10	Z10	X11	Y11	Z11	X12	Y12	Z12	X13	Y13	Z13	X14	Y14	Z14	X15	Y15	Z15	X16	Y16	Z16	X17	Y17	Z17	X18	Y18	Z18	X19	Y19	Z19	X20	Y20	Z20	X21	Y21	Z21	X22	Y22	Z22	X23	Y23	Z23	X24	Y24	Z24	X25	Y25	Z25	X26	Y26	Z26	X27	Y27	Z27	X28	Y28	Z28	X29	Y29	Z29	X30	Y30	Z30	X31	Y31	Z31	X32	Y32	Z32	X33	Y33	Z33	X34	Y34	Z34	X35	Y35	Z35	X36	Y36	Z36	X37	Y37	Z37	

1	139.996	903.2636950733859	1465.297772785187	-1183.134839247224	909.34903462957	1245.150589217995	-1123.385664696514	853.6548347250763	1383.883125346505	-1302.159742938334	757.114828444736	1469.288732590469	-1168.840243976838	1021.009183511573	1443.694673968043	-1272.088785400072	719.3348934030729	1017.056067244269	-1237.190021589954	967.4601168667517	984.6464479063299	-1277.845419599099	866.3854507522249	1054.205774518373	-1080.307145986751	899.000746698416	1053.250308582829	-1087.056700542123	699.0718536971366	1091.696227524419	-1181.180003496547	1014.108766954303	1057.950052595692	-1248.66501400691	657.1788782422821	939.3576752315888	-1161.466989695316	750.4987770703104	795.672289589696	-1340.64704916388	701.2420630662318	682.9709497438183	-1253.964792971447	726.8422291842734	540.2979383937501	-1294.254094053894	nan	nan	nan	775.2947505315531	472.060138856016	-1367.98154912878	734.9860741807536	340.9238636546379	-1295.208052502948	778.9259455387224	281.095566566019	-1375.148678745108	769.9101715766288	130.431220275537	-1350.597266827931	nan	nan	nan	794.6514979883473	127.2310852437359	-1501.688064034196	762.270618219334	78.7829957614679	-1484.100802819834	815.0026748201561	79.36768785917278	-1296.4189119361	1035.518740241226	899.8120532978312	-1230.134114092156	922.4917529244431	712.1309126500203	-1224.431911565322	998.6691692047231	673.1939384274077	-1101.368077621851	975.3474370708069	541.4095903509551	-1019.002527768711	nan	nan	nan	917.5124493684494	465.8343413982134	-1011.274338743615	987.5904203199524	414.0022681112682	-901.2624805717666	919.6450269502975	325.510504507586	-882.2469246194931	967.1510714888938	239.0393710536066	-765.642367112231	nan	nan	nan	911.2726580917155	103.5126441714292	-785.6465398010082	956.909893304569	106.8376495091889	-748.8222612682097	941.2957393047302	294.4777786968014	-699.9198668450719	
2	140	902.8093945966867	1464.409874486927	-1183.860860830287	908.6628388487375	1244.188035182159	-1123.226018951705	853.0421762385132	1383.127084674347	-1302.494037786507	756.2600202900679	1468.073278034007	-1169.304629965767	1021.055038122111	1442.081108806242	-1272.580810110554	719.2539639472762	1015.658173257551	-1237.38982345012	967.5182539369222	984.3287641212074	-1277.910262076763	866.1061735855249	1052.753807576156	-1080.267122920951	898.6179224254655	1052.018922792559	-1087.107604569056	698.4797409773563	1089.864591710788	-1181.211575950532	1013.925098676802	1057.881605520715	-1247.440233215588	657.4106666152369	937.0920268751195	-1161.21189785798	750.6909402751745	791.6988705652041	-1339.23765157546	700.3891543292049	680.4485821017735	-1254.151345757025	726.8795737733033	538.2240060394454	-1293.753719404601	nan	nan	nan	775.7115112520606	470.6176930243806	-1367.189198968598	735.1072710826943	338.9043700182041	-1295.72750958035	779.3162629883077	279.8873441083541	-1376.042881748599	770.2405816852934	128.8555927354049	-1352.921843209294	nan	nan	nan	795.9086484437826	127.3087962911034	-1503.923336942758	763.657603190533	78.36718500968442	-1486.986650248296	815.1894723402148	77.29795208909124	-1299.024017936265	1035.243542906725	899.1920710836868	-1230.452117896466	922.0678375776179	711.4345344836859	-1227.395345298714	998.0595900088388	670.626936073094	-1104.547239750289	974.937720345976	538.3391622479309	-1022.810268105639	nan	nan	nan	917.4267490819718	463.1859648856869	-1012.955509261367	988.0908426000333	414.072821073248	-901.8306036966642	920.2196461416459	327.2047036636855	-879.7912681121201	968.7615898456671	244.0323244555883	-761.6560253699095	nan	nan	nan	912.1095115188693	108.8088965289791	-779.5514525872275	958.0248137527378	112.2574730478165	-742.9445929232567	944.0073093903401	300.5753774599082	-696.5180721648161	
3	140.004	902.359502262957	1463.523515102717	-1184.57726150551	907.9842437007372	1243.240175868532	-1123.064298930376	852.4358525807454	1382.36970520464	-1302.81581993546	755.417388865738	1466.865859970849	-1169.770814060581	1021.088807503414	1440.479699478507	-1273.073548610298	719.181804113136	1014.262775101096	-1237.602277247691	967.5812127813612	984.0214310857448	-1277.976886350593	865.8149853647558	1051.29820977353	-1080.228940209957	898.2276352180385	1050.788245678292	-1087.162824533079	697.8921480169453	1088.03882199632	-1181.245988554438	1013.751319706474	1057.828007667049	-1246.223514959571	657.6407635699953	934.815964705606	-1160.984368916628	750.9050331244365	787.7446653006551	-1337.849604203618	699.5675551066755	677.9046572018691	-1254.329772541137	726.9127403375401	536.1297631166484	-1293.229232375499	nan	nan	nan	776.1157095144606	469.1378257925892	-1366.374354796091	735.2200062227297	336.854055154535	-1296.210769294524	779.6775435292279	278.6254295103715	-1376.89602013516	770.555608640008	127.2401382720922	-1355.187095198231	nan	nan	nan	797.1353401914163	127.2818075326645	-1506.107437171785	765.0168801946013	77.86424521830406	-1489.796868622612	815.3740156074299	75.23499387378598	-1301.556326529575	1034.977566520572	898.5809110697808	-1230.761372504476	921.6495066478238	710.7380361355664	-1230.328572010756	997.4546076968533	668.0822885328929	-1107.692756738409	974.5264411338317	535.2901554655623	-1026.587108195605	nan	nan	nan	917.3355112647662	460.5572517683272	-1014.632125939873	988.5922870314467	414.1522027567558	-902.3993340145934	920.7970708758724	328.8912658162132	-877.3650970218019	970.3683010504061	248.9858430913131	-757.7061079050346	nan	nan	nan	912.9358122280262	114.0602470986874	-773.5021199041796	959.1302822747584	117.6292558874391	-737.1066754459162	946.7138441555468	306.6342229859504	-693.148410918314	
4	140.008	901.9062096386418	1462.611269832261	-1185.268405652397	907.3063770151168	1242.281210815271	-1122.897006766766	851.8404784356845	1381.572268002154	-1303.118049693016	754.5822958678174	1465.643867223415	-1170.245099395473	1021.102458523998	1438.869487536587	-1273.552280440741	719.1176596127289	1012.839379727794	-1237.827064798447	967.657670471294	983.695443585273	-1278.045014437025	865.502081158627	1049.793638017995	-1080.181277545547	897.823546065146	1049.510369997608	-1087.209778802174	697.3114538283655	1086.186879060001	-1181.278770317972	1013.604949483698	1057.747390088123	-1245.015686942585	657.8629402854752	932.4994359490615	-1160.796734257706	751.1431358822167	783.8254152448393	-1336.510912470655	698.7972887622036	675.3219412250206	-1254.498020923949	726.9377343749304	533.998764937226	-1292.679317847791	nan	nan	nan	776.5073013587765	467.5841659967929	-1365.526220377857	735.3229623828064	334.7603429086778	-1296.610574088026	780.0135288472223	277.265903474658	-1377.63226796461	770.8584076842566	125.5627441920362	-1357.256156386047	nan	nan	nan	798.3181914630389	127.0483347944425	-1508.104475356	766.3255798336481	77.19496570932813	-1492.362049426557	815.5640433723714	73.19932539802738	-1303.854579922107	1034.728196584261	897.9461350626187	-1231.055086143962	921.2615701107703	710.0098102239632	-1233.222890657641	996.8743688265548	665.5428786497699	-1110.798587534882	974.1327726718387	532.2525833928931	-1030.347128034892	nan	nan	nan	917.2622067346994	457.9347865454878	-1016.341198016839	989.1088225466614	414.2509049041628	-903.0119552915656	921.3996877254449	330.5671143463981	-875.0319653873723	971.9767034330329	253.9100747973954	-753.8578782375736	nan	nan	nan	913.7808492238256	119.2701989882194	-767.5500863644874	960.2479617078975	122.9712672479483	-731.3560021031797	949.3959775961437	312.6657386560767	-689.8926060284862	
